<?xml version="1.0" encoding="utf-8"?>
<!-- Generator: Adobe Illustrator 17.1.0, SVG Export Plug-In . SVG Version: 6.00 Build 0)  -->
<!DOCTYPE svg PUBLIC "-//W3C//DTD SVG 1.1//EN" "http://www.w3.org/Graphics/SVG/1.1/DTD/svg11.dtd">
<svg version="1.1" id="Layer_1" xmlns="http://www.w3.org/2000/svg" xmlns:xlink="http://www.w3.org/1999/xlink" x="0px" y="0px"
	 viewBox="-18 0 108 70" enable-background="new -18 0 108 70" xml:space="preserve">
<rect x="-18" fill="#FFFFFF" width="108" height="70"/>
<path fill="#413B45" d="M35.4,67.7C17.3,67.7,2.6,53,2.6,34.9S17.3,2.1,35.4,2.1s32.8,14.7,32.8,32.8S53.5,67.7,35.4,67.7z
	 M35.4,2.6C17.6,2.6,3.1,17.1,3.1,34.9s14.5,32.3,32.3,32.3s32.3-14.5,32.3-32.3S53.2,2.6,35.4,2.6z M40.9,17.5h-10
	c0,0.3,0,0.4,0,0.7c0,1.5,0.5,2.7,1.5,3.6c1.1,0.9,2.3,1.5,3.6,1.5c1.6,0,3.2-0.7,4.8-1.9v1.6c-1.5,1.1-3.1,1.7-4.9,1.7
	c-1.9,0-3.3-0.7-4.5-1.9c-1.2-1.3-1.9-2.9-1.9-4.8c0-1.9,0.5-3.5,1.6-4.6s2.5-1.9,4.1-1.9s2.9,0.5,4,1.6
	C40.3,14.2,40.9,15.6,40.9,17.5z M31,16.4h8.2c-0.5-2.5-1.9-3.7-4-3.7c-1.1,0-2,0.3-2.7,0.9C31.8,14.3,31.3,15.2,31,16.4z
	 M51.5,14.4L35.4,32.9L19.5,14.4h-3.3v42.1h3.3V19.2l13.9,16.2l-4.6,5.3c-1.1,1.5-1.7,3.2-1.7,5.2c0,4.6,3.9,8.5,8.5,8.5
	s8.5-3.7,8.5-8.5c0-1.7-0.5-3.5-1.5-4.8l-4.9-5.6l13.9-16.2v37.3H55V14.4C55,14.4,51.5,14.4,51.5,14.4z M31.8,42.1l1.1-1.3l2.5-2.9
	l2.7,3.1l1.2,1.5l0,0l0,0c0.8,0.9,1.3,2.1,1.3,3.5c0,2.9-2.4,5.2-5.2,5.2c-2.9,0-5.2-2.4-5.2-5.2C30.2,44.3,30.9,43.1,31.8,42.1"/>
</svg>
